<?xml version="1.0" standalone="no"?><!DOCTYPE svg PUBLIC "-//W3C//DTD SVG 1.1//EN" "http://www.w3.org/Graphics/SVG/1.1/DTD/svg11.dtd"><svg class="icon" width="32px" height="32.00px" viewBox="0 0 1024 1024" version="1.1" xmlns="http://www.w3.org/2000/svg"><path fill="#1890ff" d="M871.171413 376.32A382.102187 382.102187 0 0 1 896 512c0 211.749547-172.250453 384-384 384-211.74272 0-384-172.250453-384-384 0-186.12224 133.106347-341.681493 309.118293-376.613547v-59.4944c0-1.911467 0.150187-3.720533 0.259414-5.556906C225.75104 105.977173 64 290.392747 64 512c0 247.043413 200.963413 448 448 448S960 759.043413 960 512a445.924693 445.924693 0 0 0-26.68544-152.282453c-17.85856 8.779093-38.693547 14.25408-62.143147 16.602453zM348.576427 348.576427a230.372693 230.372693 0 0 0-50.11456 74.943146 32.017067 32.017067 0 0 0 59.139413 24.541867 166.659413 166.659413 0 0 1 36.256427-54.203733 166.5024 166.5024 0 0 1 54.203733-36.29056c1.283413-0.59392 2.41664-1.378987 3.584-2.116267-8.922453-11.91936-14.527147-27.497813-14.527147-46.71488v-12.090027a31.696213 31.696213 0 0 0-13.564586 1.78176 230.720853 230.720853 0 0 0-74.97728 50.148694zM635.76064 352.33792l-44.025173-56.005973a31.98976 31.98976 0 0 0-9.762134 0.28672v12.12416c0 18.117973-4.97664 33.03424-13.018453 44.673706a31.607467 31.607467 0 0 0 7.010987 4.150614 167.048533 167.048533 0 0 1 54.183253 36.256426 166.516053 166.516053 0 0 1 36.283733 54.21056 32.017067 32.017067 0 1 0 59.132587-24.548693 230.898347 230.898347 0 0 0-21.804373-40.557227 70.587733 70.587733 0 0 1-9.816747 0.730454c-22.009173 0-41.588053-10.540373-58.18368-31.320747zM211.74272 422.270293a31.880533 31.880533 0 0 0 41.82016-17.278293 278.002347 278.002347 0 0 1 60.709547-90.719573 278.398293 278.398293 0 0 1 90.68544-60.709547 32.003413 32.003413 0 1 0-24.51456-59.132587 341.879467 341.879467 0 0 0-111.45216 74.560854 342.029653 342.029653 0 0 0-74.560854 111.486293 32.003413 32.003413 0 0 0 17.312427 41.792853zM756.456107 376.183467a280.364373 280.364373 0 0 1 13.981013 28.7744 32.003413 32.003413 0 1 0 59.132587-24.51456c-0.382293-0.9216-0.8192-1.809067-1.20832-2.72384h-56.415574c-5.379413 0-10.519893-0.600747-15.489706-1.536zM675.396267 675.396267a230.229333 230.229333 0 0 0 50.141866-74.949974 32.003413 32.003413 0 1 0-59.132586-24.51456c-8.410453 20.29568-20.637013 38.536533-36.283734 54.183254s-33.921707 27.87328-54.183253 36.283733a32.003413 32.003413 0 0 0 24.51456 59.132587 229.102933 229.102933 0 0 0 74.943147-50.13504zM812.264107 601.736533l-0.013654-0.006826a32.09216 32.09216 0 0 0-41.82016 17.312426 278.336853 278.336853 0 0 1-60.675413 90.719574 278.336853 278.336853 0 0 1-90.719573 60.675413 32.003413 32.003413 0 1 0 24.51456 59.132587 342.132053 342.132053 0 0 0 111.45216-74.560854 342.637227 342.637227 0 0 0 74.560853-111.45216 31.98976 31.98976 0 0 0-17.298773-41.82016zM405.03296 770.464427a278.193493 278.193493 0 0 1-90.760533-60.709547 278.541653 278.541653 0 0 1-60.709547-90.719573 32.003413 32.003413 0 1 0-59.132587 24.51456 341.6064 341.6064 0 0 0 74.58816 111.45216 341.947733 341.947733 0 0 0 111.458987 74.560853 31.935147 31.935147 0 0 0 41.792853-17.312427 31.955627 31.955627 0 0 0-17.237333-41.786026zM640 512c0-70.59456-57.40544-128-128-128S384 441.40544 384 512 441.40544 640 512 640 640 582.59456 640 512zM512 576c-35.293867 0-64-28.706133-64-64S476.706133 448 512 448 576 476.706133 576 512 547.293867 576 512 576zM448.034133 666.432853a166.62528 166.62528 0 0 1-54.21056-36.283733 166.87104 166.87104 0 0 1-36.283733-54.183253 32.01024 32.01024 0 1 0-59.132587 24.51456 230.659413 230.659413 0 0 0 50.141867 74.949973 230.0928 230.0928 0 0 0 74.943147 50.141867 32.017067 32.017067 0 0 0 24.541866-59.139414zM771.945813 336.759467c-20.814507 0-34.269867-13.33248-34.269866-33.962667V81.831253c0-20.630187 13.45536-33.962667 34.269866-33.962666h90.801494c25.429333 0 46.34624 6.28736 62.17728 18.691413 19.18976 15.60576 28.883627 36.317867 28.883626 61.597013 0 23.59296-7.563947 42.78272-22.493866 57.105067a63.228587 63.228587 0 0 1 11.823786 10.963627c13.441707 15.906133 20.268373 33.785173 20.268374 53.10464 0 26.043733-10.990933 47.616-32.679254 64.12288-20.302507 15.4624-49.227093 23.299413-85.988693 23.299413h-72.792747z m84.002134-62.375254c13.216427 0 23.90016-2.464427 31.76448-7.33184 10.902187-6.560427 12.36992-13.038933 12.36992-18.507093 0-7.113387-3.70688-13.57824-11.32544-19.756373-7.768747-6.034773-21.620053-9.250133-40.004267-9.250134h-47.336107v54.84544h54.531414z m-7.202134-117.609813c12.438187 0 22.459733-2.587307 30.624427-7.912107 7.666347-5.16096 11.106987-11.557547 11.106987-20.698453 0-6.47168-2.000213-10.963627-6.485334-14.574933-1.399467-1.071787-5.133653-2.94912-13.646506-2.94912h-68.93568v46.134613h47.336106zM693.94432 342.698667c-12.069547 0-20.718933-9.086293-26.180267-15.926614L541.013333 165.526187v143.21664c0 25.06752-16.950613 33.962667-31.464106 33.962666s-31.464107-8.895147-31.464107-33.962666V75.892053c0-24.773973 16.30208-33.56672 30.26944-33.56672 11.066027 0 19.060053 7.96672 24.794453 14.90944l126.539094 161.3824V75.892053c0-20.391253 12.506453-33.56672 31.86688-33.56672 14.513493 0 31.464107 8.792747 31.464106 33.56672v232.850774c-0.006827 25.060693-15.6672 33.95584-29.074773 33.95584z" /></svg>